<?xml version="1.0" encoding="UTF-8"?>
<!DOCTYPE svg PUBLIC "-//W3C//DTD SVG 1.1//EN" "http://www.w3.org/Graphics/SVG/1.1/DTD/svg11.dtd">
<svg xmlns="http://www.w3.org/2000/svg" version="1.1" width="644px" height="422px" style="shape-rendering:geometricPrecision; text-rendering:geometricPrecision; image-rendering:optimizeQuality; fill-rule:evenodd; clip-rule:evenodd" xmlns:xlink="http://www.w3.org/1999/xlink">
<g><path style="opacity:1" fill="#b3e3fa" d="M 307.5,138.5 C 308.649,138.791 309.316,139.624 309.5,141C 311.562,149.577 313.562,158.077 315.5,166.5C 313.404,165.396 312.404,166.23 312.5,169C 315.778,187.388 318.278,205.888 320,224.5C 320.836,221.059 321.669,220.892 322.5,224C 321.509,288.815 321.175,353.648 321.5,418.5C 319.726,417.63 318.393,416.297 317.5,414.5C 303.013,391.21 286.346,369.544 267.5,349.5C 267.5,348.833 267.5,348.167 267.5,347.5C 276.917,356.759 285.917,366.592 294.5,377C 295.332,377.688 295.998,377.521 296.5,376.5C 294.725,373.262 292.725,370.262 290.5,367.5C 291.873,367.657 293.207,367.49 294.5,367C 273.979,333.457 249.979,302.624 222.5,274.5C 220.605,272.514 218.605,272.181 216.5,273.5C 215.662,273.158 215.328,272.492 215.5,271.5C 215.918,270.778 216.584,270.278 217.5,270C 173.233,228.203 121.9,198.869 63.5,182C 59.8546,181.281 56.1879,180.781 52.5,180.5C 52.3433,179.127 52.51,177.793 53,176.5C 55.9927,172.947 59.4927,170.281 63.5,168.5C 64.436,165.041 66.436,162.207 69.5,160C 68.9558,159.283 68.2891,158.783 67.5,158.5C 78.5,147.5 89.5,136.5 100.5,125.5C 101.822,125.33 102.989,125.663 104,126.5C 145.733,84.4327 187.733,42.766 230,1.5C 265.886,39.1042 290.553,83.1042 304,133.5C 304.549,135.76 305.716,137.426 307.5,138.5 Z"/></g>
<g><path style="opacity:1" fill="#7bc4ed" d="M 409.5,-0.5 C 411.833,-0.5 414.167,-0.5 416.5,-0.5C 475.203,58.2741 534.037,116.941 593,175.5C 594.669,177.169 595.502,179.169 595.5,181.5C 544.739,192.386 499.072,213.719 458.5,245.5C 418.934,277.905 385.101,315.572 357,358.5C 354.372,363.709 351.372,368.709 348,373.5C 346.813,375.044 346.48,376.711 347,378.5C 352.352,373.312 357.185,367.645 361.5,361.5C 361.5,362.5 361.5,363.5 361.5,364.5C 349.019,380.784 337.019,397.451 325.5,414.5C 325.624,415.107 325.957,415.44 326.5,415.5C 325.101,416.89 323.434,417.89 321.5,418.5C 321.175,353.648 321.509,288.815 322.5,224C 321.669,220.892 320.836,221.059 320,224.5C 318.278,205.888 315.778,187.388 312.5,169C 312.404,166.23 313.404,165.396 315.5,166.5C 316.585,180.06 318.585,193.393 321.5,206.5C 326.532,158.257 339.532,112.424 360.5,69C 374.417,43.9435 390.751,20.7768 409.5,-0.5 Z"/></g>
<g><path style="opacity:0.843" fill="#a2d9f2" d="M 226.5,-0.5 C 228.833,-0.5 231.167,-0.5 233.5,-0.5C 267.598,36.0328 291.765,78.6994 306,127.5C 306.719,131.145 307.219,134.812 307.5,138.5C 305.716,137.426 304.549,135.76 304,133.5C 290.553,83.1042 265.886,39.1042 230,1.5C 187.733,42.766 145.733,84.4327 104,126.5C 102.989,125.663 101.822,125.33 100.5,125.5C 142.491,83.5428 184.491,41.5428 226.5,-0.5 Z"/></g>
<g><path style="opacity:0.383" fill="#98d2f0" d="M 67.5,158.5 C 68.2891,158.783 68.9558,159.283 69.5,160C 66.436,162.207 64.436,165.041 63.5,168.5C 59.4927,170.281 55.9927,172.947 53,176.5C 52.51,177.793 52.3433,179.127 52.5,180.5C 56.1879,180.781 59.8546,181.281 63.5,182C 121.9,198.869 173.233,228.203 217.5,270C 216.584,270.278 215.918,270.778 215.5,271.5C 201.26,259.676 186.927,248.01 172.5,236.5C 135.15,210.331 94.1497,191.998 49.5,181.5C 48.628,179.534 48.7947,177.534 50,175.5C 56.0328,169.966 61.8661,164.299 67.5,158.5 Z"/></g>
<g><path style="opacity:0.999" fill="#087dc6" d="M 53.5,218.5 C 65.4144,221.802 77.0811,225.469 88.5,229.5C 88.3893,230.117 88.056,230.617 87.5,231C 156.707,256.742 216.707,296.242 267.5,349.5C 286.346,369.544 303.013,391.21 317.5,414.5C 317.565,414.938 317.399,415.272 317,415.5C 316.292,414.619 315.458,413.953 314.5,413.5C 309.537,406.869 303.87,400.869 297.5,395.5C 283.766,380.768 268.766,367.435 252.5,355.5C 249.277,354.555 246.277,353.055 243.5,351C 241.379,349.251 239.379,347.418 237.5,345.5C 238.332,344.671 237.999,343.838 236.5,343C 227.004,336.418 217.338,330.085 207.5,324C 203.781,321.636 199.781,320.136 195.5,319.5C 144.208,290.576 89.2079,271.909 30.5,263.5C 29.8478,262.275 28.6811,261.608 27,261.5C 23.8249,261.054 20.6582,260.554 17.5,260C 16.5494,259.282 16.3828,258.449 17,257.5C 29,245.5 41,233.5 53,221.5C 53.4828,220.552 53.6495,219.552 53.5,218.5 Z"/></g>
<g><path style="opacity:1" fill="#097dc6" d="M 589.5,218.5 C 589.351,219.552 589.517,220.552 590,221.5C 602.341,234.008 614.841,246.341 627.5,258.5C 627.5,259.5 627.5,260.5 627.5,261.5C 582.011,266.872 538.011,278.206 495.5,295.5C 481.14,302.191 466.806,308.858 452.5,315.5C 450.692,315.491 449.025,315.991 447.5,317C 440.833,321 434.167,325 427.5,329C 421.41,332.699 415.743,336.866 410.5,341.5C 410.586,342.496 410.252,343.329 409.5,344C 398.391,350.96 388.057,358.794 378.5,367.5C 377.749,366.427 376.749,366.26 375.5,367C 358.023,381.977 341.689,398.144 326.5,415.5C 325.957,415.44 325.624,415.107 325.5,414.5C 337.019,397.451 349.019,380.784 361.5,364.5C 390.929,331.57 423.929,302.737 460.5,278C 474.258,269.121 488.591,261.288 503.5,254.5C 503.5,253.5 503.5,252.5 503.5,251.5C 503.5,250.833 503.833,250.5 504.5,250.5C 504.351,251.552 504.517,252.552 505,253.5C 519.974,245.543 535.474,238.71 551.5,233C 552.756,232.583 553.423,231.75 553.5,230.5C 553.611,229.883 553.944,229.383 554.5,229C 566.157,225.5 577.823,222 589.5,218.5 Z"/></g>
<g><path style="opacity:0.071" fill="#51a5d2" d="M 53.5,218.5 C 53.6495,219.552 53.4828,220.552 53,221.5C 41,233.5 29,245.5 17,257.5C 16.3828,258.449 16.5494,259.282 17.5,260C 20.6582,260.554 23.8249,261.054 27,261.5C 28.6811,261.608 29.8478,262.275 30.5,263.5C 25.4333,263.253 20.4333,262.587 15.5,261.5C 15.3379,259.473 15.5045,257.473 16,255.5C 28.7004,243.299 41.2004,230.966 53.5,218.5 Z"/></g>
<g><path style="opacity:0.298" fill="#48a1ce" d="M 589.5,218.5 C 601.8,230.966 614.3,243.299 627,255.5C 627.483,256.448 627.649,257.448 627.5,258.5C 614.841,246.341 602.341,234.008 590,221.5C 589.517,220.552 589.351,219.552 589.5,218.5 Z"/></g>
<g><path style="opacity:0.231" fill="#459cd1" d="M 553.5,230.5 C 553.423,231.75 552.756,232.583 551.5,233C 535.474,238.71 519.974,245.543 505,253.5C 504.517,252.552 504.351,251.552 504.5,250.5C 515.353,246.157 526.02,241.323 536.5,236C 542.198,234.145 547.865,232.312 553.5,230.5 Z"/></g>
<g><path style="opacity:0.525" fill="#91ccec" d="M 290.5,367.5 C 288.638,364.124 286.971,360.624 285.5,357C 265.339,326.988 242.339,299.155 216.5,273.5C 218.605,272.181 220.605,272.514 222.5,274.5C 249.979,302.624 273.979,333.457 294.5,367C 293.207,367.49 291.873,367.657 290.5,367.5 Z"/></g>
<g><path style="opacity:0.999" fill="#232a48" d="M 267.5,376.5 C 276.979,384.074 286.645,391.407 296.5,398.5C 302.215,403.036 307.548,408.036 312.5,413.5C 309.167,411.833 305.833,410.167 302.5,408.5C 298.589,404.866 294.256,401.699 289.5,399C 281.107,393.825 272.44,389.325 263.5,385.5C 259.389,382.111 254.722,379.778 249.5,378.5C 246.784,378.614 244.784,377.614 243.5,375.5C 220.859,364.021 197.192,355.021 172.5,348.5C 163.028,345.461 153.362,342.628 143.5,340C 139.973,339.192 136.64,339.359 133.5,340.5C 132.662,340.158 132.328,339.492 132.5,338.5C 120.038,334.843 107.205,332.51 94,331.5C 92.3189,331.608 91.1522,332.275 90.5,333.5C 89.8333,333.5 89.5,333.167 89.5,332.5C 88.0512,330.836 86.0512,330.002 83.5,330C 56.8796,327.953 30.2129,326.953 3.5,327C 16.5,314 29.5,301 42.5,288C 76.0068,290.941 108.674,297.941 140.5,309C 172.506,321.004 203.173,335.671 232.5,353C 243.916,361.292 255.582,369.125 267.5,376.5 Z"/></g>
<g><path style="opacity:0.999" fill="#222948" d="M 510.5,338.5 C 506.837,338.952 503.17,339.452 499.5,340C 467.209,347.997 435.875,358.497 405.5,371.5C 401.32,373.466 396.987,375.299 392.5,377C 388.177,379.83 383.844,382.663 379.5,385.5C 363.011,393.084 347.345,402.251 332.5,413C 331.833,413.667 331.167,413.667 330.5,413C 348.803,397.188 367.803,382.355 387.5,368.5C 444.392,328.321 507.392,302.154 576.5,290C 584.495,288.887 592.495,288.22 600.5,288C 613.5,301 626.5,314 639.5,327C 602.273,325.924 565.273,328.258 528.5,334C 522.299,335.217 516.299,336.717 510.5,338.5 Z"/></g>
<g><path style="opacity:0.192" fill="#4c7da6" d="M 510.5,338.5 C 516.299,336.717 522.299,335.217 528.5,334C 565.273,328.258 602.273,325.924 639.5,327C 626.5,314 613.5,301 600.5,288C 592.495,288.22 584.495,288.887 576.5,290C 507.392,302.154 444.392,328.321 387.5,368.5C 387.5,367.5 387.5,366.5 387.5,365.5C 447.779,323.669 514.445,297.169 587.5,286C 592.167,285.333 596.833,285.333 601.5,286C 614.333,298.833 627.167,311.667 640,324.5C 640.495,326.473 640.662,328.473 640.5,330.5C 631.843,329.035 623.01,328.369 614,328.5C 599.51,329.518 585.01,330.351 570.5,331C 550.447,333.079 530.447,335.579 510.5,338.5 Z"/></g>
<g><path style="opacity:0.318" fill="#4ca2d4" d="M 503.5,251.5 C 503.5,252.5 503.5,253.5 503.5,254.5C 488.591,261.288 474.258,269.121 460.5,278C 423.929,302.737 390.929,331.57 361.5,364.5C 361.5,363.5 361.5,362.5 361.5,361.5C 393.758,325.359 430.424,294.359 471.5,268.5C 482.189,262.795 492.856,257.129 503.5,251.5 Z"/></g>
<g><path style="opacity:0.318" fill="#61adda" d="M 88.5,229.5 C 158.161,254.296 217.828,293.63 267.5,347.5C 267.5,348.167 267.5,348.833 267.5,349.5C 216.707,296.242 156.707,256.742 87.5,231C 88.056,230.617 88.3893,230.117 88.5,229.5 Z"/></g>
<g><path style="opacity:0.137" fill="#5481a6" d="M 267.5,374.5 C 267.5,375.167 267.5,375.833 267.5,376.5C 255.582,369.125 243.916,361.292 232.5,353C 203.173,335.671 172.506,321.004 140.5,309C 108.674,297.941 76.0068,290.941 42.5,288C 29.5,301 16.5,314 3.5,327C 30.2129,326.953 56.8796,327.953 83.5,330C 86.0512,330.002 88.0512,330.836 89.5,332.5C 69.606,331.153 49.7727,329.819 30,328.5C 21.0257,328.356 12.359,329.023 4,330.5C 2.68121,329.681 1.51454,328.681 0.5,327.5C 13.9859,313.514 27.6526,299.681 41.5,286C 46.5,285.333 51.5,285.333 56.5,286C 134.395,298.328 204.729,327.828 267.5,374.5 Z"/></g>
<g><path style="opacity:0.255" fill="#5697bf" d="M 195.5,319.5 C 199.781,320.136 203.781,321.636 207.5,324C 217.338,330.085 227.004,336.418 236.5,343C 237.999,343.838 238.332,344.671 237.5,345.5C 223.745,336.406 209.745,327.739 195.5,319.5 Z"/></g>
<g><path style="opacity:0.165" fill="#4f7092" d="M 132.5,338.5 C 118.597,336.188 104.597,334.521 90.5,333.5C 91.1522,332.275 92.3189,331.608 94,331.5C 107.205,332.51 120.038,334.843 132.5,338.5 Z"/></g>
<g><path style="opacity:0.108" fill="#3e95c6" d="M 452.5,315.5 C 447.609,319.961 441.942,323.461 435.5,326C 427.545,331.791 419.211,336.958 410.5,341.5C 415.743,336.866 421.41,332.699 427.5,329C 434.167,325 440.833,321 447.5,317C 449.025,315.991 450.692,315.491 452.5,315.5 Z"/></g>
<g><path style="opacity:0.243" fill="#4c7295" d="M 133.5,340.5 C 136.64,339.359 139.973,339.192 143.5,340C 153.362,342.628 163.028,345.461 172.5,348.5C 159.488,345.662 146.488,342.995 133.5,340.5 Z"/></g>
<g><path style="opacity:0.114" fill="#496e9b" d="M 510.5,338.5 C 502.234,341.993 493.401,344.326 484,345.5C 458.191,352.743 433.025,361.743 408.5,372.5C 407.791,371.596 406.791,371.263 405.5,371.5C 435.875,358.497 467.209,347.997 499.5,340C 503.17,339.452 506.837,338.952 510.5,338.5 Z"/></g>
<g><path style="opacity:0.09" fill="#53779b" d="M 172.5,348.5 C 197.192,355.021 220.859,364.021 243.5,375.5C 229.008,370.41 214.674,364.744 200.5,358.5C 190.662,356.058 181.328,352.725 172.5,348.5 Z"/></g>
<g><path style="opacity:0.18" fill="#639fc9" d="M 405.5,371.5 C 406.791,371.263 407.791,371.596 408.5,372.5C 398.92,376.995 389.254,381.328 379.5,385.5C 383.844,382.663 388.177,379.83 392.5,377C 396.987,375.299 401.32,373.466 405.5,371.5 Z"/></g>
<g><path style="opacity:0.125" fill="#8bb7d4" d="M 252.5,355.5 C 268.766,367.435 283.766,380.768 297.5,395.5C 297.443,396.609 297.11,397.609 296.5,398.5C 286.645,391.407 276.979,384.074 267.5,376.5C 267.5,375.833 267.5,375.167 267.5,374.5C 272.217,377.037 276.551,380.204 280.5,384C 281.448,384.483 282.448,384.649 283.5,384.5C 275.278,375.778 266.278,367.945 256.5,361C 254.79,359.349 253.456,357.516 252.5,355.5 Z M 283.5,384.5 C 285.5,384.5 286.5,385.5 286.5,387.5C 286.5,385.5 285.5,384.5 283.5,384.5 Z"/></g>
<g><path style="opacity:0.149" fill="#618fad" d="M 249.5,378.5 C 254.722,379.778 259.389,382.111 263.5,385.5C 258.14,384.24 253.473,381.906 249.5,378.5 Z"/></g>
<g><path style="opacity:0.035" fill="#a0c3dc" d="M 263.5,385.5 C 272.44,389.325 281.107,393.825 289.5,399C 294.256,401.699 298.589,404.866 302.5,408.5C 300.94,408.481 299.44,408.148 298,407.5C 287.178,400.401 276.012,393.734 264.5,387.5C 263.702,387.043 263.369,386.376 263.5,385.5 Z"/></g>
<g><path style="opacity:0.998" fill="#e1eaf1" d="M 297.5,395.5 C 303.87,400.869 309.537,406.869 314.5,413.5C 313.833,413.5 313.167,413.5 312.5,413.5C 307.548,408.036 302.215,403.036 296.5,398.5C 297.11,397.609 297.443,396.609 297.5,395.5 Z"/></g>
<g><path style="opacity:0.243" fill="#80b3d3" d="M 387.5,365.5 C 387.5,366.5 387.5,367.5 387.5,368.5C 367.803,382.355 348.803,397.188 330.5,413C 331.167,413.667 331.833,413.667 332.5,413C 347.345,402.251 363.011,393.084 379.5,385.5C 379.631,386.376 379.298,387.043 378.5,387.5C 359.603,397.794 341.603,409.128 324.5,421.5C 322.833,421.5 321.167,421.5 319.5,421.5C 314.642,417.512 309.309,414.012 303.5,411C 302.748,410.329 302.414,409.496 302.5,408.5C 305.833,410.167 309.167,411.833 312.5,413.5C 313.167,413.5 313.833,413.5 314.5,413.5C 315.458,413.953 316.292,414.619 317,415.5C 317.399,415.272 317.565,414.938 317.5,414.5C 318.393,416.297 319.726,417.63 321.5,418.5C 323.434,417.89 325.101,416.89 326.5,415.5C 341.689,398.144 358.023,381.977 375.5,367C 376.749,366.26 377.749,366.427 378.5,367.5C 372.871,371.461 367.871,376.127 363.5,381.5C 371.815,376.673 379.815,371.34 387.5,365.5 Z M 363.5,381.5 C 363.396,383.973 362.396,384.639 360.5,383.5C 361.357,382.575 362.357,381.908 363.5,381.5 Z"/></g>
</svg>
